<svg width="51" height="51" viewBox="0 0 51 51" fill="none" xmlns="http://www.w3.org/2000/svg">
<path d="M23.2707 33.5833C22.7498 33.5833 22.229 33.3124 21.9373 32.8333C21.4998 32.1041 21.729 31.1249 22.479 30.6874L24.3332 29.5833V27.3333C24.3332 26.4791 25.0415 25.7708 25.8957 25.7708C26.7498 25.7708 27.4582 26.4791 27.4582 27.3333V30.4583C27.4582 30.9999 27.1665 31.5208 26.7082 31.7916L24.104 33.3541C23.8123 33.4999 23.5415 33.5833 23.2707 33.5833Z" fill="#B5AFA7"/>
<path opacity="0.4" d="M45.6042 24.2708L44.3125 38.3958C43.875 42.5624 42.1667 46.8124 33 46.8124H17.125C7.95833 46.8124 6.25 42.5624 5.83333 38.4166L4.5625 24.8541C4.58333 24.8749 4.60417 24.8958 4.64583 24.9166C5.35417 25.3749 6.04167 25.8333 6.79167 26.2499C7.08333 26.4374 7.39583 26.6041 7.70833 26.7708C10.0625 28.0624 12.5833 29.0833 15.1875 29.7916C16.2292 30.1041 17.2917 30.3333 18.375 30.5208C18.7917 33.8541 21.6458 36.4374 25.0833 36.4374C28.5625 36.4374 31.4375 33.7916 31.8125 30.3958V30.3749C32.875 30.1666 33.9375 29.8958 34.9792 29.5833C37.5833 28.7708 40.1042 27.6874 42.4583 26.3124C42.5833 26.2499 42.6875 26.1874 42.7708 26.1249C43.7292 25.6041 44.6458 24.9999 45.5208 24.3749C45.5625 24.3541 45.5833 24.3124 45.6042 24.2708Z" fill="#B5AFA7"/>
<path d="M44.0207 15.0417C42.2498 13.0833 39.3123 12.1042 34.9998 12.1042H34.4998V12.0208C34.4998 8.52083 34.4998 4.1875 26.6665 4.1875H23.4998C15.6665 4.1875 15.6665 8.52083 15.6665 12.0208V12.1042H15.1665C10.854 12.1042 7.89567 13.0833 6.14567 15.0417C4.08317 17.3542 4.14567 20.4167 4.354 22.5208L4.37483 22.6667L4.56233 24.8542C4.58317 24.875 4.62483 24.8958 4.6665 24.9167C5.37483 25.375 6.06233 25.8333 6.81233 26.25C7.104 26.4375 7.4165 26.6042 7.729 26.7708C10.0832 28.0625 12.604 29.0833 15.1873 29.7917C15.2498 35.1875 19.6665 39.5625 25.0832 39.5625C30.5415 39.5625 34.979 35.125 34.979 29.6667V29.5833C37.604 28.7917 40.1248 27.6875 42.479 26.3125C42.604 26.25 42.6873 26.1875 42.7915 26.125C43.7498 25.6042 44.6665 25 45.5415 24.375C45.5623 24.3542 45.604 24.3125 45.6248 24.2708L45.7082 23.5208L45.8123 22.5417C45.8332 22.4167 45.8332 22.3125 45.854 22.1667C46.0207 20.0833 45.979 17.2083 44.0207 15.0417ZM18.6457 12.0208C18.6457 8.47917 18.6457 7.14583 23.4998 7.14583H26.6665C31.5207 7.14583 31.5207 8.47917 31.5207 12.0208V12.1042H18.6457V12.0208ZM25.0832 36.4375C21.6457 36.4375 18.7915 33.8542 18.3748 30.5208C18.3332 30.25 18.3123 29.9583 18.3123 29.6667C18.3123 25.9375 21.354 22.8958 25.0832 22.8958C28.8123 22.8958 31.854 25.9375 31.854 29.6667C31.854 29.9167 31.8332 30.1458 31.8123 30.375V30.3958C31.4373 33.7917 28.5623 36.4375 25.0832 36.4375Z" fill="#00927B"/>
</svg>
