<svg width="51" height="51" viewBox="0 0 51 51" fill="none" xmlns="http://www.w3.org/2000/svg">
<g clip-path="url(#clip0_1_12496)">
<path d="M22.6483 29.2011C23.8634 29.2009 25.0513 28.8517 26.0616 28.1976C27.0719 27.5434 27.8593 26.6138 28.3243 25.5261C28.7892 24.4385 28.9109 23.2417 28.6738 22.0871C28.4366 20.9325 27.8515 19.872 26.9922 19.0396C26.1329 18.2072 25.0381 17.6403 23.8463 17.4106C22.6545 17.1809 21.4191 17.2987 20.2964 17.7491C19.1737 18.1995 18.214 18.9623 17.5388 19.9411C16.8636 20.9198 16.5031 22.0706 16.5029 23.2478C16.5049 24.8261 17.1529 26.3392 18.305 27.4553C19.457 28.5713 21.019 29.1992 22.6483 29.2011ZM18.4913 23.2478C18.4912 22.4513 18.7349 21.6726 19.1916 21.0103C19.6482 20.348 20.2974 19.8317 21.057 19.5268C21.8165 19.2219 22.6524 19.142 23.4588 19.2973C24.2652 19.4526 25.0059 19.8361 25.5874 20.3993C26.1688 20.9624 26.5648 21.68 26.7252 22.4612C26.8857 23.2424 26.8034 24.0521 26.4888 24.788C26.1742 25.5239 25.6414 26.1528 24.9578 26.5953C24.2742 27.0379 23.4704 27.2741 22.6483 27.2741C21.5462 27.2731 20.4895 26.8486 19.71 26.0938C18.9306 25.339 18.4927 24.3154 18.4913 23.2478Z" fill="#B5AFA7"/>
<path d="M24.7749 29.957H20.5216C18.7745 29.9588 17.0994 30.6319 15.864 31.8286C14.6285 33.0254 13.9335 34.648 13.9315 36.3405V41.4832C13.9103 41.8431 13.9645 42.2034 14.0909 42.5425C14.2172 42.8816 14.4131 43.1924 14.6667 43.4562C14.9203 43.72 15.2265 43.9314 15.5666 44.0776C15.9068 44.2238 16.274 44.3017 16.6461 44.3068C16.9567 44.3031 17.2645 44.2494 17.557 44.1481V49.5372C17.5555 49.6646 17.58 49.7911 17.6292 49.9092C17.6784 50.0274 17.7514 50.1349 17.8438 50.2255C17.9363 50.3162 18.0464 50.3881 18.1677 50.4372C18.2891 50.4863 18.4193 50.5116 18.5508 50.5116C18.6823 50.5116 18.8126 50.4863 18.9339 50.4372C19.0553 50.3881 19.1654 50.3162 19.2578 50.2255C19.3502 50.1349 19.4232 50.0274 19.4724 49.9092C19.5216 49.7911 19.5462 49.6646 19.5446 49.5372V35.9666C19.5414 35.7133 19.4354 35.4714 19.2493 35.2933C19.0633 35.1152 18.8123 35.0154 18.5508 35.0154C18.2893 35.0154 18.0383 35.1152 17.8523 35.2933C17.6663 35.4714 17.5602 35.7133 17.557 35.9666V41.3773C17.5474 41.4121 17.54 41.4475 17.5348 41.4832C17.5395 41.7163 17.4486 41.9418 17.282 42.1102C17.1154 42.2785 16.8867 42.376 16.6461 42.3814C16.1099 42.3814 15.9196 41.8967 15.9196 41.4832V36.3405C15.921 35.1586 16.4062 34.0254 17.2689 33.1897C18.1316 32.3539 19.3012 31.8838 20.5213 31.8825H24.7746C25.9947 31.8838 27.1644 32.3539 28.0271 33.1897C28.8898 34.0254 29.375 35.1586 29.3764 36.3405V41.4832C29.3764 41.8967 29.186 42.3814 28.6498 42.3814C28.4092 42.376 28.1805 42.2785 28.0139 42.1102C27.8473 41.9418 27.7564 41.7163 27.7611 41.4832C27.7558 41.4458 27.7481 41.4088 27.738 41.3724V35.9682C27.7396 35.8408 27.715 35.7144 27.6658 35.5963C27.6166 35.4781 27.5436 35.3706 27.4512 35.2799C27.3588 35.1893 27.2487 35.1174 27.1273 35.0683C27.0059 35.0191 26.8757 34.9938 26.7442 34.9938C26.6127 34.9938 26.4825 35.0191 26.3611 35.0683C26.2398 35.1174 26.1297 35.1893 26.0372 35.2799C25.9448 35.3706 25.8718 35.4781 25.8226 35.5963C25.7734 35.7144 25.7488 35.8408 25.7504 35.9682V49.5367C25.7488 49.6641 25.7734 49.7905 25.8226 49.9087C25.8718 50.0268 25.9448 50.1343 26.0372 50.2249C26.1297 50.3156 26.2398 50.3876 26.3611 50.4367C26.4825 50.4858 26.6127 50.5111 26.7442 50.5111C26.8757 50.5111 27.0059 50.4858 27.1273 50.4367C27.2487 50.3876 27.3588 50.3156 27.4512 50.2249C27.5436 50.1343 27.6166 50.0268 27.6658 49.9087C27.715 49.7905 27.7396 49.6641 27.738 49.5367V44.1475C28.0308 44.2488 28.3389 44.3025 28.6498 44.3063C29.0219 44.3012 29.3891 44.2232 29.7293 44.077C30.0694 43.9309 30.3755 43.7195 30.6292 43.4557C30.8828 43.1919 31.0787 42.881 31.205 42.542C31.3314 42.2029 31.3856 41.8425 31.3644 41.4826V36.3399C31.3624 34.6476 30.6674 33.0251 29.4321 31.8284C28.1967 30.6318 26.5219 29.9588 24.7749 29.957Z" fill="#B5AFA7"/>
<path d="M22.6483 42.3665C22.3847 42.3666 22.1319 42.4681 21.9455 42.6486C21.759 42.829 21.654 43.0738 21.6536 43.3291V49.5372C21.6567 49.7906 21.7628 50.0326 21.949 50.2107C22.1351 50.3889 22.3862 50.4888 22.6478 50.4888C22.9094 50.4888 23.1605 50.3889 23.3466 50.2107C23.5327 50.0326 23.6388 49.7906 23.642 49.5372V43.3291C23.6418 43.0739 23.537 42.8292 23.3507 42.6487C23.1644 42.4682 22.9118 42.3667 22.6483 42.3665Z" fill="#B5AFA7"/>
<path d="M8.31124 30.3806C9.44002 30.3807 10.5435 30.0565 11.482 29.449C12.4206 28.8415 13.1522 27.978 13.5842 26.9678C14.0162 25.9575 14.1293 24.8458 13.9092 23.7733C13.6891 22.7008 13.1456 21.7156 12.3475 20.9423C11.5494 20.169 10.5325 19.6423 9.42542 19.4289C8.31835 19.2154 7.17082 19.3248 6.12791 19.7431C5.08499 20.1615 4.19354 20.87 3.5663 21.7792C2.93905 22.6883 2.60418 23.7572 2.604 24.8507C2.60576 26.3167 3.20758 27.7221 4.27748 28.7587C5.34739 29.7954 6.79803 30.3787 8.31124 30.3806ZM4.59156 24.8507C4.59173 24.138 4.81004 23.4414 5.21889 22.8489C5.62774 22.2564 6.20878 21.7946 6.88851 21.522C7.56825 21.2494 8.31615 21.1782 9.03767 21.3173C9.7592 21.4565 10.4219 21.7998 10.9421 22.3038C11.4622 22.8078 11.8164 23.4499 11.9598 24.1489C12.1033 24.8479 12.0295 25.5725 11.7479 26.2309C11.4663 26.8893 10.9895 27.4521 10.3778 27.848C9.7661 28.2439 9.04692 28.4552 8.31124 28.4552C7.32487 28.4541 6.37923 28.074 5.68186 27.3983C4.98448 26.7225 4.59236 25.8063 4.59156 24.8507Z" fill="#B5AFA7"/>
<path d="M12.0608 35.5513C11.7972 35.5515 11.5444 35.6529 11.358 35.8334C11.1715 36.0139 11.0666 36.2586 11.0662 36.5139V49.5368C11.0662 49.7922 11.1709 50.0372 11.3573 50.2178C11.5438 50.3984 11.7967 50.4999 12.0603 50.4999C12.324 50.4999 12.5768 50.3984 12.7633 50.2178C12.9497 50.0372 13.0544 49.7922 13.0544 49.5368V36.5139C13.0542 36.2587 12.9495 36.014 12.7631 35.8335C12.5768 35.653 12.3242 35.5515 12.0608 35.5513Z" fill="#B5AFA7"/>
<path d="M13.0691 31.593C12.2 31.1579 11.2359 30.9311 10.2576 30.9314H6.36536C4.74409 30.9329 3.18964 31.5574 2.04313 32.6679C0.896624 33.7784 0.251725 35.2842 0.249928 36.8548V41.4517C0.230259 41.7919 0.281872 42.1325 0.401666 42.4529C0.521461 42.7733 0.706947 43.067 0.946971 43.3161C1.18699 43.5653 1.47659 43.7647 1.79831 43.9026C2.12002 44.0404 2.46719 44.1138 2.81894 44.1182C3.07294 44.1146 3.32509 44.0755 3.56763 44.0024V49.5372C3.57078 49.7906 3.67691 50.0326 3.86302 50.2108C4.04913 50.3889 4.30022 50.4888 4.56184 50.4888C4.82347 50.4888 5.07454 50.3889 5.26065 50.2108C5.44676 50.0326 5.55289 49.7906 5.55604 49.5372L5.55518 36.5143C5.55203 36.261 5.44595 36.0191 5.25992 35.841C5.07389 35.663 4.82291 35.5631 4.5614 35.5631C4.29989 35.5631 4.04891 35.663 3.86288 35.841C3.67686 36.0191 3.57078 36.261 3.56763 36.5143V41.3542C3.55893 41.3864 3.55207 41.4191 3.54712 41.4521C3.55127 41.6436 3.47699 41.8288 3.34054 41.9674C3.20409 42.1059 3.01655 42.1865 2.81894 42.1915C2.38952 42.1915 2.23748 41.7929 2.23748 41.4521V36.8545C2.23878 35.7944 2.67412 34.7781 3.44799 34.0285C4.22186 33.279 5.27105 32.8575 6.36536 32.8564H10.2576C10.9176 32.8548 11.5682 33.0081 12.1538 33.3031C12.2692 33.3622 12.3957 33.3982 12.5258 33.409C12.6559 33.4198 12.787 33.4052 12.9111 33.366C13.0987 33.3086 13.2644 33.1986 13.3874 33.0498C13.5103 32.9011 13.585 32.7204 13.6019 32.5305C13.6188 32.3407 13.5772 32.1502 13.4824 31.9833C13.3875 31.8164 13.2437 31.6807 13.0691 31.593Z" fill="#B5AFA7"/>
<path d="M8.31117 42.178C8.04769 42.1782 7.79508 42.2797 7.60877 42.4602C7.42246 42.6407 7.31768 42.8854 7.31746 43.1406V49.5372C7.31587 49.6646 7.3404 49.7911 7.38963 49.9092C7.43886 50.0274 7.51181 50.1349 7.60425 50.2255C7.69669 50.3162 7.80679 50.3881 7.92815 50.4372C8.04951 50.4863 8.17971 50.5116 8.31123 50.5116C8.44275 50.5116 8.57297 50.4863 8.69433 50.4372C8.81569 50.3881 8.92579 50.3162 9.01823 50.2255C9.11067 50.1349 9.18362 50.0274 9.23285 49.9092C9.28208 49.7911 9.30661 49.6646 9.30503 49.5372V43.1406C9.30476 42.8854 9.19996 42.6407 9.01363 42.4602C8.8273 42.2797 8.57466 42.1782 8.31117 42.178Z" fill="#B5AFA7"/>
<path d="M36.9845 30.3806C38.1132 30.3805 39.2166 30.0561 40.155 29.4485C41.0935 28.8409 41.8249 27.9774 42.2568 26.9671C42.6887 25.9569 42.8017 24.8453 42.5814 23.7728C42.3612 22.7003 41.8177 21.7152 41.0195 20.942C40.2214 20.1688 39.2045 19.6422 38.0975 19.4288C36.9904 19.2154 35.8429 19.3248 34.8 19.7432C33.7572 20.1616 32.8658 20.8701 32.2386 21.7793C31.6114 22.6884 31.2765 23.7572 31.2764 24.8507C31.2781 26.3168 31.8801 27.7223 32.9502 28.759C34.0202 29.7957 35.4711 30.3789 36.9845 30.3806ZM33.2646 24.8507C33.2648 24.138 33.4831 23.4414 33.892 22.8489C34.3008 22.2564 34.8818 21.7946 35.5616 21.522C36.2413 21.2494 36.9892 21.1782 37.7107 21.3173C38.4322 21.4565 39.095 21.7997 39.6151 22.3037C40.1352 22.8077 40.4894 23.4498 40.6329 24.1488C40.7764 24.8478 40.7026 25.5724 40.4211 26.2308C40.1395 26.8892 39.6627 27.452 39.051 27.8479C38.4393 28.2438 37.7201 28.4552 36.9845 28.4552C35.9981 28.4541 35.0524 28.074 34.355 27.3983C33.6576 26.7225 33.2655 25.8063 33.2646 24.8507Z" fill="#B5AFA7"/>
<path d="M33.2347 35.5513C32.9713 35.5515 32.7187 35.653 32.5324 35.8335C32.346 36.014 32.2413 36.2587 32.241 36.5139V49.5368C32.2395 49.6642 32.264 49.7907 32.3132 49.9088C32.3624 50.027 32.4354 50.1345 32.5278 50.2251C32.6203 50.3157 32.7304 50.3877 32.8517 50.4368C32.9731 50.4859 33.1033 50.5112 33.2348 50.5112C33.3663 50.5112 33.4966 50.4859 33.6179 50.4368C33.7393 50.3877 33.8494 50.3157 33.9418 50.2251C34.0342 50.1345 34.1072 50.027 34.1564 49.9088C34.2056 49.7907 34.2302 49.6642 34.2286 49.5368V36.5139C34.2283 36.2587 34.1235 36.014 33.9372 35.8335C33.7509 35.653 33.4982 35.5515 33.2347 35.5513Z" fill="#B5AFA7"/>
<path d="M38.9309 30.9314H35.0381C34.0633 30.9319 33.1026 31.157 32.2353 31.588C32.0009 31.7051 31.8242 31.9076 31.7439 32.151C31.6637 32.3944 31.6865 32.6586 31.8074 32.8857C31.9283 33.1127 32.1374 33.2839 32.3886 33.3617C32.6398 33.4394 32.9126 33.4172 33.147 33.3001C33.7313 33.0066 34.3803 32.8545 35.0385 32.8567H38.9316C40.0258 32.8579 41.0748 33.2795 41.8484 34.0291C42.6221 34.7786 43.0573 35.7948 43.0586 36.8548V41.4517C43.0586 41.7924 42.9067 42.1911 42.4782 42.1911C42.2804 42.1863 42.0926 42.1058 41.956 41.9672C41.8193 41.8286 41.7449 41.6433 41.749 41.4517C41.7441 41.4182 41.7371 41.3851 41.7282 41.3525V36.514C41.725 36.2606 41.6189 36.0186 41.4328 35.8404C41.2467 35.6623 40.9956 35.5624 40.734 35.5624C40.4724 35.5624 40.2213 35.6623 40.0351 35.8404C39.849 36.0186 39.7429 36.2606 39.7398 36.514V49.5369C39.7382 49.6643 39.7627 49.7908 39.8119 49.9089C39.8612 50.0271 39.9341 50.1346 40.0266 50.2252C40.119 50.3158 40.2291 50.3878 40.3504 50.4369C40.4718 50.486 40.602 50.5113 40.7335 50.5113C40.8651 50.5113 40.9953 50.486 41.1166 50.4369C41.238 50.3878 41.3481 50.3158 41.4405 50.2252C41.533 50.1346 41.6059 50.0271 41.6551 49.9089C41.7044 49.7908 41.7289 49.6643 41.7273 49.5369V44.0013C42.126 44.1244 42.5499 44.1506 42.9615 44.0777C43.3731 44.0047 43.7599 43.8348 44.0878 43.5828C44.4156 43.3309 44.6745 43.0047 44.8415 42.633C45.0086 42.2613 45.0786 41.8555 45.0456 41.4514V36.8545C45.0438 35.284 44.3989 33.7784 43.2526 32.668C42.1062 31.5576 40.552 30.933 38.9309 30.9314Z" fill="#B5AFA7"/>
<path d="M36.9844 42.178C36.7209 42.1782 36.4683 42.2797 36.282 42.4602C36.0957 42.6407 35.991 42.8854 35.9907 43.1406V49.5372C35.9907 49.7926 36.0954 50.0374 36.2818 50.2179C36.4681 50.3985 36.7209 50.4999 36.9844 50.4999C37.248 50.4999 37.5007 50.3985 37.6871 50.2179C37.8734 50.0374 37.9781 49.7926 37.9781 49.5372V43.1406C37.9779 42.8854 37.8731 42.6407 37.6868 42.4602C37.5005 42.2797 37.2479 42.1782 36.9844 42.178Z" fill="#B5AFA7"/>
<path d="M49.6616 11.9615C48.6975 11.488 47.8389 10.8355 47.1348 10.041C48.303 8.24573 49.0305 6.21476 49.2615 4.10437C49.2797 3.87247 49.2108 3.64203 49.0676 3.45542C48.9243 3.26881 48.7163 3.13858 48.4818 3.08869C48.3062 3.04987 48.1228 3.05899 47.9522 3.11505C47.7815 3.1711 47.6303 3.2719 47.5153 3.40622C44.4495 6.12242 42.3441 4.86196 39.6748 3.269C37.4121 1.91832 34.6758 0.298088 31.4796 2.24257V1.46259C31.4765 1.20916 31.3703 0.967148 31.1842 0.789014C30.9981 0.610881 30.7471 0.510986 30.4854 0.510986C30.2238 0.510986 29.9727 0.610881 29.7866 0.789014C29.6005 0.967148 29.4944 1.20916 29.4912 1.46259V19.9791C29.4944 20.2326 29.6005 20.4746 29.7866 20.6527C29.9727 20.8309 30.2238 20.9307 30.4854 20.9307C30.7471 20.9307 30.9981 20.8309 31.1842 20.6527C31.3703 20.4746 31.4765 20.2326 31.4796 19.9791V14.4736C34.1428 12.0511 36.0498 13.1512 38.6442 14.7044C40.2185 15.8484 42.0921 16.5424 44.0527 16.7076C45.9163 16.6336 47.6747 15.8508 48.9465 14.5291C49.2325 14.266 49.9497 13.5316 49.9787 13.5018C50.0876 13.39 50.1673 13.2545 50.2111 13.1067C50.2549 12.9589 50.2615 12.8031 50.2304 12.6523C50.1993 12.5015 50.1314 12.3602 50.0323 12.24C49.9333 12.1199 49.8065 12.0242 49.6616 11.9615ZM45.1222 9.46207C44.9891 9.62288 44.9132 9.82114 44.906 10.0272C44.8988 10.2332 44.9605 10.436 45.0821 10.6052C45.7783 11.5687 46.6525 12.3993 47.6605 13.0549C47.6316 13.0829 47.6049 13.1078 47.582 13.1277C44.5017 15.943 42.3758 14.6726 39.6907 13.0648C38.1776 11.9629 36.3811 11.2848 34.4973 11.1047C33.4223 11.1149 32.3737 11.4282 31.4795 12.0062V4.66501C34.1518 2.23347 36.0333 3.35993 38.6338 4.90827C40.8286 6.21993 43.5352 7.83441 46.7744 6.25628C46.4179 7.4089 45.859 8.49338 45.1222 9.46207Z" fill="#00927B"/>
<path d="M37.4326 4.84545C36.5676 4.26739 35.5647 3.91269 34.5187 3.81494C34.2573 3.81799 34.0075 3.92078 33.8238 4.10099C33.64 4.28121 33.5369 4.52433 33.5369 4.77767C33.5369 5.03101 33.64 5.27412 33.8238 5.45434C34.0075 5.63455 34.2573 5.73734 34.5187 5.74039C35.2015 5.8713 35.8507 6.13219 36.4286 6.50792C36.6561 6.63416 36.9257 6.66828 37.179 6.60286C37.4323 6.53744 37.6486 6.37777 37.7809 6.15861C37.9133 5.93944 37.9509 5.67849 37.8857 5.43257C37.8205 5.18664 37.6576 4.97565 37.4326 4.84545Z" fill="#00927B"/>
</g>
<defs>
<clipPath id="clip0_1_12496">
<rect width="50" height="50" fill="white" transform="translate(0.25 0.5)"/>
</clipPath>
</defs>
</svg>
