<svg width="51" height="51" viewBox="0 0 51 51" fill="none" xmlns="http://www.w3.org/2000/svg">
<g clip-path="url(#clip0_1_9786)">
<path d="M25.583 38.5233C23.0589 38.483 20.6028 37.6849 18.5232 36.2292C16.4437 34.7735 14.8335 32.7252 13.895 30.3416C12.9565 27.958 12.7315 25.3454 13.2483 22.8321C13.765 20.3188 15.0005 18.017 16.7996 16.2157C18.5986 14.4144 20.8808 13.194 23.3596 12.708C25.8384 12.2219 28.4032 12.4917 30.7316 13.4836C33.0601 14.4756 35.0484 16.1453 36.4468 18.283C37.8452 20.4207 38.5912 22.9311 38.5912 25.4987C38.5603 28.9791 37.1734 32.3049 34.7348 34.7466C32.2961 37.1883 29.0049 38.5466 25.583 38.5233ZM25.583 15.3956C23.6268 15.4357 21.7259 16.0624 20.1185 17.1971C18.511 18.3317 17.2688 19.9238 16.5475 21.7737C15.8262 23.6236 15.6579 25.649 16.0638 27.5957C16.4697 29.5425 17.4317 31.3241 18.8291 32.717C20.2266 34.1099 21.9972 35.0521 23.9191 35.4255C25.8409 35.7989 27.8284 35.5869 29.6322 34.816C31.436 34.0451 32.9759 32.7496 34.0587 31.0921C35.1416 29.4346 35.7192 27.4888 35.7191 25.4987C35.6889 22.7929 34.6049 20.2097 32.7047 18.3157C30.8046 16.4217 28.2434 15.3715 25.583 15.3956Z" fill="#00927B"/>
<path d="M24.057 31.7391H24.0542C23.8363 31.7387 23.6213 31.6878 23.4256 31.5903C23.2299 31.4927 23.0586 31.3511 22.9247 31.1762L19.305 26.4555C19.1873 26.3044 19.1001 26.1312 19.0486 25.9457C18.997 25.7602 18.982 25.5662 19.0046 25.3748C19.0271 25.1834 19.0867 24.9985 19.1798 24.8307C19.273 24.6628 19.3978 24.5154 19.5473 24.3969C19.6967 24.2784 19.8678 24.1911 20.0506 24.1402C20.2333 24.0893 20.4242 24.0756 20.6122 24.1001C20.8002 24.1246 20.9815 24.1866 21.1457 24.2827C21.31 24.3788 21.4539 24.5071 21.5692 24.6601L24.061 27.9086L30.3188 19.8158C30.4354 19.6651 30.5801 19.5392 30.7446 19.4453C30.9091 19.3515 31.0901 19.2915 31.2774 19.2688C31.4647 19.2461 31.6545 19.2611 31.836 19.3131C32.0176 19.365 32.1874 19.4528 32.3356 19.5714C32.4838 19.6901 32.6075 19.8372 32.6998 20.0045C32.7921 20.1718 32.8511 20.356 32.8734 20.5465C32.8957 20.737 32.8809 20.93 32.8298 21.1147C32.7788 21.2994 32.6925 21.472 32.5758 21.6228L25.1848 31.1819C25.0505 31.3555 24.8792 31.4958 24.6839 31.5924C24.4885 31.6889 24.2742 31.7391 24.057 31.7391Z" fill="#00927B"/>
<path d="M25.509 50.5001C23.9685 50.4991 22.4312 50.3578 20.9155 50.0778C20.609 50.0209 20.3289 49.8641 20.1176 49.6312C19.9063 49.3982 19.7751 49.1017 19.7439 48.7864L19.3475 44.796C18.3763 44.4865 17.4293 44.1032 16.5146 43.6492L13.432 46.2567C13.1959 46.4557 12.9035 46.5729 12.5974 46.591C12.2913 46.6092 11.9875 46.5274 11.7303 46.3576C9.04538 44.5855 6.7235 42.301 4.89295 39.6306C4.7129 39.3679 4.62265 39.0523 4.63611 38.7324C4.64957 38.4125 4.76596 38.1059 4.96742 37.8599L7.50409 34.7672C7.04335 33.8726 6.64995 32.9437 6.32729 31.9885L2.30682 31.6537C1.99739 31.6284 1.70441 31.5016 1.47191 31.2924C1.23941 31.0832 1.07999 30.8029 1.01759 30.4936C0.39544 27.1887 0.444391 23.7894 1.16147 20.5045C1.22379 20.1951 1.3832 19.9147 1.61575 19.7055C1.84829 19.4962 2.14139 19.3695 2.45088 19.3443L6.47285 19.0095C6.79507 18.0544 7.18788 17.1256 7.64797 16.2308L5.11239 13.1383C4.91094 12.8922 4.79454 12.5856 4.78108 12.2657C4.76762 11.9457 4.85783 11.6302 5.03788 11.3675C6.8679 8.69656 9.18988 6.41202 11.8752 4.64041C12.1325 4.47102 12.4362 4.38948 12.7422 4.4076C13.0482 4.42572 13.3405 4.54255 13.5768 4.74116L16.6585 7.34867C17.5736 6.89428 18.5209 6.51028 19.4925 6.1999L19.8889 2.21154C19.9199 1.89612 20.051 1.59955 20.2623 1.36657C20.4737 1.1336 20.7538 0.976874 21.0604 0.920058C24.229 0.335559 27.4772 0.36126 30.6364 0.995818C30.942 1.05722 31.2197 1.21808 31.4275 1.45412C31.6353 1.69016 31.7619 1.98857 31.7883 2.30427L32.1202 6.30218C33.0863 6.62758 34.027 7.02623 34.9344 7.49473L38.0591 4.9366C38.298 4.74101 38.5921 4.62829 38.8984 4.61493C39.2048 4.60157 39.5073 4.6883 39.7618 4.86239C42.4178 6.67674 44.7032 8.99715 46.4917 11.6955C46.6681 11.9608 46.7536 12.2778 46.7352 12.5975C46.7168 12.9172 46.5954 13.2219 46.3898 13.4644L43.8009 16.5188C44.2467 17.4197 44.6245 18.3537 44.9312 19.3129L48.9488 19.7122C49.2579 19.7427 49.549 19.8744 49.7782 20.0875C50.0075 20.3006 50.1626 20.5836 50.2203 20.894C50.7461 23.9454 50.697 27.0706 50.0754 30.1033C50.0175 30.4135 49.8623 30.6963 49.6331 30.9092C49.4038 31.1222 49.1129 31.2538 48.8039 31.2843L44.7862 31.6837C44.4796 32.6428 44.1017 33.5768 43.6559 34.4777L46.2449 37.5323C46.4504 37.7748 46.5719 38.0794 46.5904 38.399C46.609 38.7186 46.5237 39.0356 46.3476 39.301C44.5592 41.9997 42.2735 44.3202 39.6168 46.1341C39.3626 46.3087 39.06 46.3957 38.7535 46.3824C38.447 46.369 38.1528 46.256 37.9142 46.0599L34.7896 43.5018C33.8824 43.971 32.9416 44.3697 31.9753 44.6943L31.6434 48.6923C31.617 49.008 31.4904 49.3064 31.2826 49.5425C31.0748 49.7785 30.7971 49.9395 30.4915 50.0009C28.8506 50.3321 27.1819 50.4993 25.509 50.5001ZM22.49 47.3732C24.6098 47.6612 26.7587 47.6445 28.8739 47.3238L29.1946 43.4629C29.2195 43.1654 29.3334 42.8829 29.521 42.6534C29.7086 42.4238 29.9608 42.2583 30.2438 42.179C31.6386 41.787 32.9798 41.219 34.2359 40.4881C34.4863 40.3416 34.7744 40.2758 35.0624 40.2992C35.3503 40.3227 35.6245 40.4343 35.8487 40.6194L38.8714 43.0938C40.5659 41.8136 42.0693 40.2909 43.335 38.5728L40.8377 35.6249C40.6443 35.3965 40.5252 35.1128 40.4966 34.8128C40.468 34.5128 40.5313 34.2112 40.6779 33.9492C41.3834 32.6901 41.9285 31.3448 42.2999 29.9457C42.376 29.6591 42.5361 29.4029 42.759 29.2113C42.9818 29.0196 43.2568 28.9016 43.5473 28.873L47.4352 28.4868C47.7506 26.5106 47.7946 24.4994 47.566 22.5109L43.693 22.1249C43.4025 22.0962 43.1276 21.9782 42.9048 21.7865C42.6819 21.5949 42.5219 21.3387 42.4458 21.0522C42.0744 19.653 41.5292 18.3076 40.8236 17.0485C40.677 16.7866 40.6137 16.4849 40.6424 16.1849C40.671 15.885 40.7902 15.6014 40.9835 15.373L43.4809 12.4249C42.2149 10.7071 40.7115 9.18434 39.0173 7.90393L35.9945 10.3784C35.7702 10.5635 35.496 10.6751 35.2081 10.6986C34.9202 10.722 34.632 10.6561 34.3816 10.5096C33.1259 9.77865 31.785 9.21061 30.3903 8.81879C30.1074 8.73954 29.8551 8.57397 29.6676 8.34444C29.48 8.1149 29.3661 7.83241 29.3412 7.53501L29.0205 3.67407C26.9053 3.35331 24.7562 3.33663 22.6365 3.62453L22.2541 7.4779C22.2248 7.7746 22.1069 8.05507 21.9162 8.28155C21.7254 8.50803 21.4711 8.66964 21.1874 8.74467C19.7861 9.11672 18.4354 9.66289 17.1654 10.3708C16.9128 10.5119 16.6243 10.5725 16.3374 10.5446C16.0505 10.5168 15.7785 10.4019 15.5566 10.2148L12.5774 7.69291C10.8623 8.94673 9.33459 10.4464 8.04183 12.1453L10.4887 15.1301C10.6785 15.3618 10.7932 15.6477 10.8169 15.9484C10.8407 16.249 10.7724 16.5498 10.6214 16.8094C9.89564 18.0568 9.32951 19.3932 8.93665 20.7864C8.85638 21.072 8.69234 21.3259 8.46647 21.5142C8.2406 21.7025 7.96365 21.8162 7.67257 21.8402L3.78216 22.1653C3.40293 24.3688 3.35847 26.6184 3.65032 28.8356L7.52764 29.1589C7.81871 29.1829 8.09567 29.2965 8.32154 29.4848C8.54741 29.6731 8.71144 29.927 8.79173 30.2125C9.18487 31.6056 9.75099 32.942 10.4765 34.1895C10.6275 34.4491 10.6958 34.7499 10.672 35.0506C10.6483 35.3513 10.5336 35.6371 10.3437 35.8688L7.89691 38.8536C9.18995 40.5523 10.7176 42.0519 12.4325 43.3061L15.4132 40.784C15.6352 40.5971 15.9072 40.4824 16.194 40.4546C16.4809 40.4268 16.7693 40.4872 17.022 40.6281C18.2916 41.3367 19.6425 41.8829 21.0439 42.2543C21.3277 42.3292 21.582 42.4908 21.7727 42.7173C21.9634 42.9437 22.0814 43.2242 22.1106 43.5209L22.49 47.3732Z" fill="#B5AFA7"/>
</g>
<defs>
<clipPath id="clip0_1_9786">
<rect width="50" height="50" fill="white" transform="translate(0.583496 0.5)"/>
</clipPath>
</defs>
</svg>
