<svg width="51" height="51" viewBox="0 0 51 51" fill="none" xmlns="http://www.w3.org/2000/svg">
<path opacity="0.4" d="M34.5625 4.66675H17.1042C9.52083 4.66675 5 9.18758 5 16.7709V34.2084C5 41.8126 9.52083 46.3334 17.1042 46.3334H34.5417C42.125 46.3334 46.6458 41.8126 46.6458 34.2293V16.7709C46.6667 9.18758 42.1458 4.66675 34.5625 4.66675Z" fill="#B5AFA7"/>
<path d="M15.1665 39.875C14.3123 39.875 13.604 39.1667 13.604 38.3125V34C13.604 33.1458 14.3123 32.4375 15.1665 32.4375C16.0207 32.4375 16.729 33.1458 16.729 34V38.3125C16.729 39.1875 16.0207 39.875 15.1665 39.875Z" fill="#00927B"/>
<path d="M25.8335 39.8751C24.9793 39.8751 24.271 39.1667 24.271 38.3126V29.6667C24.271 28.8126 24.9793 28.1042 25.8335 28.1042C26.6877 28.1042 27.396 28.8126 27.396 29.6667V38.3126C27.396 39.1876 26.6877 39.8751 25.8335 39.8751Z" fill="#00927B"/>
<path d="M36.5 39.8751C35.6458 39.8751 34.9375 39.1667 34.9375 38.3126V25.3542C34.9375 24.5001 35.6458 23.7917 36.5 23.7917C37.3542 23.7917 38.0625 24.5001 38.0625 25.3542V38.3126C38.0625 39.1876 37.375 39.8751 36.5 39.8751Z" fill="#00927B"/>
<path d="M38.0627 12.625C38.0627 12.5208 38.021 12.3958 38.0002 12.2917C37.9794 12.2083 37.9585 12.1042 37.9377 12.0208C37.896 11.9375 37.8335 11.875 37.7919 11.7917C37.7294 11.7083 37.6669 11.6042 37.5835 11.5417C37.5627 11.5208 37.5627 11.5 37.5419 11.5C37.4794 11.4583 37.4169 11.4375 37.3544 11.3958C37.271 11.3333 37.1669 11.2708 37.0627 11.2292C36.9585 11.1875 36.8544 11.1875 36.7502 11.1667C36.6669 11.1458 36.6044 11.125 36.521 11.125H30.4169C29.5627 11.125 28.8544 11.8333 28.8544 12.6875C28.8544 13.5417 29.5627 14.25 30.4169 14.25H33.021C28.0627 19.4583 21.8127 23.125 14.7919 24.8958C13.9585 25.1042 13.4377 25.9583 13.646 26.7917C13.8127 27.5 14.4585 27.9792 15.1669 27.9792C15.2919 27.9792 15.4169 27.9583 15.5419 27.9375C22.9794 26.0833 29.6252 22.2292 34.9377 16.7708V18.7917C34.9377 19.6458 35.646 20.3542 36.5002 20.3542C37.3544 20.3542 38.0627 19.6458 38.0627 18.7917V12.6875C38.0627 12.6667 38.0627 12.6458 38.0627 12.625Z" fill="#00927B"/>
</svg>
