<svg width="51" height="51" viewBox="0 0 51 51" fill="none" xmlns="http://www.w3.org/2000/svg">
<g clip-path="url(#clip0_1_20876)">
<path d="M20.5972 44.5317C20.5972 44.8678 20.7308 45.1901 20.9687 45.4277C21.2066 45.6653 21.5293 45.7989 21.8658 45.7989H29.3074C29.4752 45.8007 29.6417 45.7693 29.7972 45.7065C29.9528 45.6437 30.0943 45.5507 30.2136 45.4328C30.3329 45.315 30.4276 45.1747 30.4923 45.02C30.5569 44.8653 30.5902 44.6994 30.5902 44.5318C30.5902 44.3642 30.5569 44.1982 30.4923 44.0436C30.4276 43.8889 30.3329 43.7486 30.2136 43.6308C30.0943 43.5129 29.9528 43.4199 29.7972 43.3571C29.6417 43.2942 29.4752 43.2628 29.3074 43.2647H21.8658C21.6992 43.2647 21.5342 43.2975 21.3803 43.3611C21.2264 43.4248 21.0865 43.5181 20.9687 43.6358C20.8509 43.7534 20.7575 43.8931 20.6937 44.0468C20.63 44.2005 20.5972 44.3653 20.5972 44.5317Z" fill="#B5AFA7"/>
<path d="M46.1481 8.74454H44.4475C44.1136 8.74829 43.7946 8.88344 43.5598 9.12065C43.3249 9.35786 43.1932 9.678 43.1932 10.0116C43.1932 10.3452 43.3249 10.6653 43.5598 10.9025C43.7946 11.1398 44.1136 11.2749 44.4475 11.2787H46.1481C46.4627 11.278 46.7738 11.344 47.061 11.4722C47.3482 11.6004 47.6049 11.7879 47.8143 12.0224C48.0236 12.2569 48.1809 12.533 48.2756 12.8326C48.3704 13.1322 48.4006 13.4485 48.3641 13.7605C47.4313 21.5799 43.7613 23.3852 40.5606 23.723C40.79 22.6723 40.9056 21.6 40.9054 20.5246V1.76762C40.9054 1.43156 40.7718 1.10925 40.5339 0.871613C40.296 0.633978 39.9733 0.500488 39.6368 0.500488H12.141C11.8046 0.500531 11.482 0.634056 11.2441 0.871686C11.0063 1.10932 10.8726 1.43158 10.8726 1.76762V20.5253C10.8724 21.5986 10.9876 22.6688 11.2161 23.7176C8.02874 23.365 4.39632 21.5347 3.469 13.761C3.43256 13.449 3.46272 13.1327 3.5575 12.8331C3.65228 12.5336 3.80952 12.2574 4.01888 12.023C4.22824 11.7885 4.48496 11.601 4.77213 11.4728C5.05929 11.3446 5.3704 11.2787 5.68493 11.2793H7.38555C7.7195 11.2755 8.03851 11.1404 8.27334 10.9032C8.50816 10.666 8.63986 10.3458 8.63986 10.0122C8.63986 9.67864 8.50816 9.3585 8.27334 9.12129C8.03851 8.88407 7.7195 8.74892 7.38555 8.74517H5.68493C5.01189 8.74452 4.34637 8.88636 3.73219 9.16131C3.11802 9.43627 2.56913 9.8381 2.12174 10.3403C1.67434 10.8426 1.33859 11.4339 1.13659 12.0751C0.93459 12.7164 0.870939 13.3932 0.949827 14.0609C1.8903 21.944 5.61852 26.0632 12.036 26.314C12.8594 28.2677 14.086 30.026 15.6357 31.4742C17.1854 32.9224 19.0233 34.0279 21.0296 34.7187C20.9885 36.4112 20.4849 38.0603 19.5734 39.4877C18.0319 40.9227 16.2065 42.0191 14.2148 42.7063C13.4709 43.0096 12.8344 43.5276 12.3868 44.1942C11.9392 44.8607 11.7007 45.6455 11.7019 46.4481V46.4566C11.7031 47.5287 12.1301 48.5566 12.8891 49.3148C13.6481 50.0729 14.6771 50.4993 15.7505 50.5005H36.0253C37.0986 50.4993 38.1276 50.0728 38.8866 49.3147C39.6456 48.5566 40.0725 47.5287 40.0737 46.4566V46.447C40.0749 45.6444 39.8365 44.8596 39.3889 44.1931C38.9412 43.5265 38.3048 43.0085 37.5608 42.7052C35.5691 42.018 33.7437 40.9216 32.2023 39.4866C31.2932 38.058 30.7903 36.4093 30.7474 34.717C32.7531 34.0263 34.5905 32.921 36.1398 31.4732C37.6891 30.0254 38.9154 28.2677 39.7389 26.3147C46.1903 26.0853 49.9381 21.9656 50.8813 14.0599C50.9602 13.3922 50.8966 12.7155 50.6946 12.0741C50.4926 11.4328 50.1569 10.8416 49.7095 10.3393C49.2621 9.83703 48.7132 9.43516 48.099 9.16019C47.4848 8.88522 46.8193 8.7434 46.1462 8.74405L46.1481 8.74454ZM30.2717 41.1287C32.0805 42.8653 34.2356 44.2011 36.5964 45.0491C36.8748 45.1622 37.1131 45.3557 37.2808 45.6048C37.4485 45.8539 37.538 46.1473 37.5379 46.4474V46.456C37.5375 46.8562 37.3781 47.24 37.0947 47.523C36.8113 47.8061 36.4271 47.9653 36.0264 47.9657H15.7516C15.3509 47.9653 14.9667 47.8061 14.6833 47.5231C14.3999 47.24 14.2405 46.8563 14.24 46.456V46.447C14.24 46.1468 14.3295 45.8534 14.4973 45.6043C14.665 45.3552 14.9032 45.1617 15.1816 45.0486C17.5424 44.2006 19.6975 42.8647 21.5063 41.1282C22.7137 39.4274 23.4133 37.4192 23.5238 35.3371C25.0907 35.586 26.6872 35.586 28.2541 35.3371C28.3645 37.4194 29.0642 39.4277 30.2717 41.1287ZM25.8889 32.9901C22.5803 32.9863 19.4084 31.6718 17.0688 29.3349C14.7293 26.998 13.4133 23.8295 13.4096 20.5246V3.03366H38.3685V20.5243C38.3648 23.8293 37.0488 26.9978 34.7093 29.3348C32.3697 31.6718 29.1976 32.9864 25.8889 32.9901Z" fill="#B5AFA7"/>
<path d="M35.6644 13.3391L29.6927 12.4778L27.0272 7.07088C26.9226 6.85859 26.7605 6.67982 26.5594 6.5548C26.3582 6.42978 26.1261 6.36353 25.8892 6.36353C25.6523 6.36353 25.4202 6.42978 25.2191 6.5548C25.0179 6.67982 24.8559 6.85859 24.7512 7.07088L22.0858 12.4778L16.1142 13.3391C15.8797 13.3729 15.6594 13.4716 15.4782 13.624C15.297 13.7765 15.1621 13.9766 15.0889 14.2016C15.0157 14.4267 15.0071 14.6677 15.064 14.8974C15.1209 15.1271 15.241 15.3363 15.4108 15.5013L19.7352 19.7042L18.7099 25.6434C18.6696 25.8766 18.6956 26.1164 18.7847 26.3356C18.8739 26.5548 19.0228 26.7447 19.2144 26.8838C19.4061 27.0229 19.6329 27.1055 19.8692 27.1225C20.1055 27.1394 20.3418 27.0899 20.5513 26.9796L25.8892 24.1704L31.2272 26.9796C31.4368 27.0899 31.6731 27.1393 31.9093 27.1223C32.1456 27.1054 32.3724 27.0227 32.564 26.8836C32.7556 26.7446 32.9045 26.5547 32.9937 26.3355C33.0829 26.1163 33.1089 25.8766 33.0687 25.6434L32.0434 19.7042L36.3677 15.5013C36.5376 15.3363 36.6577 15.1271 36.7146 14.8974C36.7715 14.6677 36.7629 14.4267 36.6896 14.2016C36.6164 13.9766 36.4816 13.7765 36.3004 13.624C36.1192 13.4716 35.8989 13.3729 35.6644 13.3391ZM29.7952 18.3534C29.6475 18.4969 29.537 18.6743 29.4734 18.87C29.4097 19.0658 29.3947 19.2741 29.4297 19.4769L30.1308 23.5383L26.4806 21.6172C26.2983 21.5213 26.0953 21.4711 25.8893 21.4711C25.6832 21.4711 25.4803 21.5213 25.298 21.6172L21.6478 23.5383L22.3489 19.4769C22.3839 19.2741 22.3689 19.0658 22.3052 18.87C22.2415 18.6743 22.1311 18.4969 21.9834 18.3534L19.0262 15.4794L23.1098 14.8904C23.3138 14.861 23.5075 14.7824 23.6742 14.6614C23.8409 14.5404 23.9756 14.3807 24.0667 14.196L25.8892 10.4988L27.7119 14.1962C27.803 14.3808 27.9376 14.5405 28.1043 14.6614C28.271 14.7824 28.4647 14.861 28.6686 14.8904L32.7523 15.4794L29.7952 18.3534Z" fill="#00927B"/>
</g>
<defs>
<clipPath id="clip0_1_20876">
<rect width="50" height="50" fill="white" transform="translate(0.916504 0.5)"/>
</clipPath>
</defs>
</svg>
