<svg width="51" height="51" viewBox="0 0 51 51" fill="none" xmlns="http://www.w3.org/2000/svg">
<path d="M12.9167 27.5833C7.16667 27.5833 2.5 32.2291 2.5 37.9999C2.5 43.7708 7.16667 48.4166 12.9167 48.4166C18.6667 48.4166 23.3333 43.7499 23.3333 37.9999C23.3333 32.2499 18.6875 27.5833 12.9167 27.5833ZM8.66665 33.7499H12.9167C13.7083 33.7499 14.3333 34.3958 14.3333 35.1666C14.3333 35.9374 13.6875 36.5833 12.9167 36.5833H8.66665C7.87498 36.5833 7.25 35.9374 7.25 35.1666C7.25 34.3958 7.87498 33.7499 8.66665 33.7499ZM17.1667 42.2499H8.64586C7.85419 42.2499 7.22914 41.6041 7.22914 40.8333C7.22914 40.0624 7.87503 39.4166 8.64586 39.4166H17.1667C17.9584 39.4166 18.5833 40.0624 18.5833 40.8333C18.5833 41.6041 17.9584 42.2499 17.1667 42.2499Z" fill="#00927B"/>
<path opacity="0.4" d="M35.8335 6.75H15.0002C8.75016 6.75 4.5835 9.875 4.5835 17.1667V23.7083C4.5835 25.2292 6.14602 26.1875 7.54186 25.5833C9.83352 24.5833 12.4376 24.2083 15.1668 24.6458C20.6251 25.5417 25.0835 29.8542 26.1877 35.2708C26.5002 36.8542 26.5418 38.3958 26.3335 39.875C26.1668 41.1042 27.1668 42.1875 28.396 42.1875H35.8335C42.0835 42.1875 46.2502 39.0625 46.2502 31.7708V17.1875C46.2502 9.87499 42.0835 6.75 35.8335 6.75Z" fill="#B5AFA7"/>
<path d="M25.4167 25.2292C23.6667 25.2292 21.8959 24.6875 20.5417 23.5834L14.0209 18.375C13.3542 17.8334 13.2292 16.8542 13.7709 16.1875C14.3125 15.5208 15.2917 15.3959 15.9583 15.9375L22.4792 21.1459C24.0625 22.4167 26.75 22.4167 28.3333 21.1459L34.8542 15.9375C35.5209 15.3959 36.5208 15.5 37.0417 16.1875C37.5833 16.8542 37.4792 17.8542 36.7917 18.375L30.2708 23.5834C28.9375 24.6875 27.1667 25.2292 25.4167 25.2292Z" fill="#00927B"/>
</svg>
